<svg width="71" height="66" viewBox="0 0 71 66" fill="none" xmlns="http://www.w3.org/2000/svg">
<path d="M47.8762 26.3395L50.2057 23.476L36.0079 13.3473L33.7477 16.1775L37.7369 20.8589L20.2764 42.2837L19.166 47.7696L24.5255 45.3732L42.0552 23.915L47.8762 26.3395ZM36.5201 15.5004L47.8659 23.5937L47.1537 24.4692L42.558 22.5553L42.5471 22.5504L39.0032 20.0431L35.8507 16.3434L36.5201 15.5004ZM23.2965 44.1218L21.5066 44.9219L21.8836 43.0689L39.1288 21.9109L40.5944 22.9476L23.2965 44.1218Z" fill="#CA3500"/>
<path d="M23.091 44.7389L53.5528 39.9643L57.0808 44.8684L61.0729 44.3083L55.6527 29.3168L51.6217 29.938L51.9535 35.4575L21.4527 40.2933L16.6622 43.4144L23.091 44.7389ZM53.3845 31.2492L54.5922 31.0636L58.9211 43.0355L57.7486 43.2L54.9377 39.2913L54.6061 38.833L53.6805 36.2321L53.643 35.6184L53.3845 31.2492ZM22.3238 41.739L52.2582 36.9916L52.7929 38.499L22.8737 43.1897L20.7617 42.7541L22.3238 41.739Z" fill="#CA3500"/>
</svg>
