<svg width="362" height="230" viewBox="0 0 362 230" fill="none" xmlns="http://www.w3.org/2000/svg">
<rect width="362" height="230" rx="10" fill="#FFF7ED"/>
<path d="M181 107.5C181 105.199 182.866 103.333 185.167 103.333C187.468 103.333 189.333 105.199 189.333 107.5C189.333 109.801 187.468 111.667 185.167 111.667C182.866 111.667 181 109.801 181 107.5Z" fill="#CA3500"/>
<path fill-rule="evenodd" clip-rule="evenodd" d="M177.594 96.6666C175.322 96.6666 173.515 96.6666 172.058 96.7857C170.565 96.9077 169.292 97.1628 168.127 97.7566C166.245 98.7153 164.715 100.245 163.757 102.127C163.163 103.292 162.908 104.565 162.786 106.058C162.667 107.515 162.667 109.322 162.667 111.594V118.406C162.667 120.678 162.667 122.485 162.786 123.942C162.908 125.435 163.163 126.708 163.757 127.873C164.715 129.755 166.245 131.285 168.127 132.243C169.292 132.837 170.565 133.092 172.058 133.214C173.515 133.333 175.322 133.333 177.594 133.333H184.406C186.678 133.333 188.485 133.333 189.942 133.214C191.435 133.092 192.708 132.837 193.873 132.243C195.755 131.285 197.285 129.755 198.243 127.873C198.837 126.708 199.092 125.435 199.214 123.942C199.333 122.485 199.333 120.678 199.333 118.406V111.594C199.333 109.322 199.333 107.515 199.214 106.058C199.092 104.565 198.837 103.292 198.243 102.127C197.285 100.245 195.755 98.7153 193.873 97.7566C192.708 97.1628 191.435 96.9077 189.942 96.7857C188.485 96.6666 186.678 96.6666 184.406 96.6666H177.594ZM169.64 100.727C170.257 100.412 171.043 100.213 172.329 100.108C173.635 100.001 175.306 100 177.667 100H184.333C186.694 100 188.365 100.001 189.671 100.108C190.958 100.213 191.743 100.412 192.36 100.727C193.614 101.366 194.634 102.386 195.273 103.64C195.588 104.257 195.787 105.042 195.892 106.329C195.999 107.635 196 109.306 196 111.667V118.333C196 118.931 196 119.484 195.998 119.998L193.357 117.357C192.055 116.055 189.945 116.055 188.643 117.357L184.923 121.077C184.597 121.403 184.07 121.403 183.744 121.077L173.357 110.69C172.055 109.389 169.945 109.389 168.643 110.69L166 113.333V111.667C166 109.306 166.001 107.635 166.108 106.329C166.213 105.042 166.412 104.257 166.727 103.64C167.366 102.386 168.386 101.366 169.64 100.727Z" fill="#CA3500"/>
<path d="M181 107.5C181 105.199 182.866 103.333 185.167 103.333C187.468 103.333 189.333 105.199 189.333 107.5C189.333 109.801 187.468 111.667 185.167 111.667C182.866 111.667 181 109.801 181 107.5Z" stroke="#CA3500" stroke-width="1.67"/>
<path fill-rule="evenodd" clip-rule="evenodd" d="M177.594 96.6666C175.322 96.6666 173.515 96.6666 172.058 96.7857C170.565 96.9077 169.292 97.1628 168.127 97.7566C166.245 98.7153 164.715 100.245 163.757 102.127C163.163 103.292 162.908 104.565 162.786 106.058C162.667 107.515 162.667 109.322 162.667 111.594V118.406C162.667 120.678 162.667 122.485 162.786 123.942C162.908 125.435 163.163 126.708 163.757 127.873C164.715 129.755 166.245 131.285 168.127 132.243C169.292 132.837 170.565 133.092 172.058 133.214C173.515 133.333 175.322 133.333 177.594 133.333H184.406C186.678 133.333 188.485 133.333 189.942 133.214C191.435 133.092 192.708 132.837 193.873 132.243C195.755 131.285 197.285 129.755 198.243 127.873C198.837 126.708 199.092 125.435 199.214 123.942C199.333 122.485 199.333 120.678 199.333 118.406V111.594C199.333 109.322 199.333 107.515 199.214 106.058C199.092 104.565 198.837 103.292 198.243 102.127C197.285 100.245 195.755 98.7153 193.873 97.7566C192.708 97.1628 191.435 96.9077 189.942 96.7857C188.485 96.6666 186.678 96.6666 184.406 96.6666H177.594ZM169.64 100.727C170.257 100.412 171.043 100.213 172.329 100.108C173.635 100.001 175.306 100 177.667 100H184.333C186.694 100 188.365 100.001 189.671 100.108C190.958 100.213 191.743 100.412 192.36 100.727C193.614 101.366 194.634 102.386 195.273 103.64C195.588 104.257 195.787 105.042 195.892 106.329C195.999 107.635 196 109.306 196 111.667V118.333C196 118.931 196 119.484 195.998 119.998L193.357 117.357C192.055 116.055 189.945 116.055 188.643 117.357L184.923 121.077C184.597 121.403 184.07 121.403 183.744 121.077L173.357 110.69C172.055 109.389 169.945 109.389 168.643 110.69L166 113.333V111.667C166 109.306 166.001 107.635 166.108 106.329C166.213 105.042 166.412 104.257 166.727 103.64C167.366 102.386 168.386 101.366 169.64 100.727Z" stroke="#CA3500" stroke-width="1.67"/>
</svg>
